<?xml version="1.0" standalone="no"?>
<!DOCTYPE svg PUBLIC "-//W3C//DTD SVG 20010904//EN"
 "http://www.w3.org/TR/2001/REC-SVG-20010904/DTD/svg10.dtd">
<svg version="1.0" xmlns="http://www.w3.org/2000/svg"
 width="343.000000pt" height="379.000000pt" viewBox="0 0 343.000000 379.000000"
 preserveAspectRatio="xMidYMid meet">

<g transform="translate(0.000000,379.000000) scale(0.100000,-0.100000)"
fill="currentColor" stroke="none">
<path d="M0 3378 l1 -413 60 -65 c32 -36 102 -118 155 -182 l96 -117 28 14
c16 8 31 18 34 23 2 4 -9 39 -26 77 -50 119 -116 325 -138 435 -25 121 -24
235 4 288 32 63 145 111 227 97 117 -20 212 -211 273 -550 13 -71 27 -156 31
-188 l7 -58 41 3 41 3 17 120 c58 402 159 637 285 665 91 21 200 -25 239 -100
51 -99 8 -347 -113 -650 l-50 -125 27 -17 c14 -10 31 -18 36 -18 6 0 49 48 95
107 153 192 330 355 433 398 60 25 125 19 176 -14 50 -34 98 -98 106 -145 8
-40 -17 -115 -62 -186 -59 -92 -324 -343 -471 -445 -2 -2 7 -18 18 -38 l21
-35 78 33 c126 53 310 112 418 134 160 33 269 24 325 -26 57 -50 85 -180 54
-242 -61 -116 -292 -204 -693 -261 l-83 -12 0 -39 c0 -44 -6 -41 130 -59 199
-26 432 -92 537 -151 58 -33 110 -87 119 -125 11 -43 -2 -120 -28 -171 -36
-71 -85 -93 -203 -93 -137 1 -318 47 -555 144 -47 19 -88 32 -93 29 -9 -5 -40
-64 -35 -67 56 -38 208 -165 287 -241 161 -155 227 -252 237 -343 10 -100 -94
-212 -197 -212 -54 0 -81 10 -154 55 -105 66 -256 217 -395 396 l-67 87 -35
-20 -36 -21 20 -46 c97 -221 158 -438 165 -588 5 -101 4 -115 -17 -157 -29
-62 -88 -97 -174 -103 -73 -6 -107 7 -155 62 -76 86 -139 277 -181 540 -11 72
-23 145 -26 163 -5 30 -8 32 -44 32 -39 0 -39 0 -45 -48 -55 -410 -151 -677
-265 -734 -93 -47 -243 10 -279 105 -16 41 -13 176 5 265 20 98 74 269 126
395 22 54 38 99 37 101 -23 15 -59 36 -63 36 -3 0 -47 -53 -99 -117 -53 -65
-120 -143 -151 -173 l-56 -54 0 -368 0 -368 1715 0 1715 0 0 1895 0 1895
-1715 0 -1715 0 0 -412z"/>
<path d="M0 2325 c1 -26 2 -28 11 -12 8 14 8 22 0 30 -8 8 -11 3 -11 -18z"/>
<path d="M0 1376 c0 -33 2 -37 15 -26 19 15 19 21 0 46 -13 18 -14 16 -15 -20z"/>
</g>
</svg>
